<mxfile host="Electron" agent="Mozilla/5.0 (X11; Linux x86_64) AppleWebKit/537.36 (KHTML, like Gecko) draw.io/26.2.2 Chrome/134.0.6998.178 Electron/35.1.2 Safari/537.36" version="26.2.2">
  <diagram id="aQhpeuAyKN3efvRNQwSn" name="Draft 0">
    <mxGraphModel dx="790" dy="520" grid="1" gridSize="10" guides="0" tooltips="1" connect="1" arrows="1" fold="1" page="1" pageScale="1" pageWidth="827" pageHeight="583" math="0" shadow="0">
      <root>
        <mxCell id="0" />
        <mxCell id="1" parent="0" />
        <mxCell id="8TTzhzkPqiKwERcbz_GF-29" value="SDR" style="rounded=0;whiteSpace=wrap;html=1;fillColor=default;verticalAlign=top;fontSize=15;shadow=1;" parent="1" vertex="1">
          <mxGeometry x="230" y="10" width="280" height="260" as="geometry" />
        </mxCell>
        <mxCell id="8TTzhzkPqiKwERcbz_GF-19" value="SDR" style="rounded=0;whiteSpace=wrap;html=1;fillColor=default;verticalAlign=top;fontSize=15;" parent="1" vertex="1">
          <mxGeometry x="20" y="10" width="190" height="260" as="geometry" />
        </mxCell>
        <mxCell id="8TTzhzkPqiKwERcbz_GF-39" value="SDR" style="rounded=0;whiteSpace=wrap;html=1;fillColor=default;verticalAlign=top;fontSize=15;" parent="1" vertex="1">
          <mxGeometry x="530" y="10" width="280" height="260" as="geometry" />
        </mxCell>
        <mxCell id="8TTzhzkPqiKwERcbz_GF-28" value="upper.json" style="rounded=0;whiteSpace=wrap;html=1;fillColor=none;labelPosition=left;verticalLabelPosition=middle;align=right;verticalAlign=middle;" parent="1" vertex="1">
          <mxGeometry x="290" y="40" width="210" height="60" as="geometry" />
        </mxCell>
        <mxCell id="8TTzhzkPqiKwERcbz_GF-26" value="radio.json" style="rounded=0;whiteSpace=wrap;html=1;fillColor=none;labelPosition=left;verticalLabelPosition=middle;align=right;verticalAlign=middle;" parent="1" vertex="1">
          <mxGeometry x="290" y="190" width="210" height="70" as="geometry" />
        </mxCell>
        <mxCell id="8TTzhzkPqiKwERcbz_GF-27" value="phy.json" style="rounded=0;whiteSpace=wrap;html=1;fillColor=none;labelPosition=left;verticalLabelPosition=middle;align=right;verticalAlign=middle;" parent="1" vertex="1">
          <mxGeometry x="290" y="110" width="210" height="70" as="geometry" />
        </mxCell>
        <mxCell id="gou46OdMyQ_DH9dvmqBt-82" value="hw_t" style="rounded=0;whiteSpace=wrap;html=1;fillColor=#dae8fc;strokeColor=none;verticalAlign=middle;dashed=1;" parent="1" vertex="1">
          <mxGeometry x="90" y="210" width="90" height="40" as="geometry" />
        </mxCell>
        <mxCell id="8TTzhzkPqiKwERcbz_GF-3" value="worker_pool_t" style="rounded=0;whiteSpace=wrap;html=1;fillColor=#dae8fc;strokeColor=none;verticalAlign=middle;dashed=1;" parent="1" vertex="1">
          <mxGeometry x="90" y="130" width="90" height="40" as="geometry" />
        </mxCell>
        <mxCell id="8TTzhzkPqiKwERcbz_GF-4" value="tpoint_t" style="rounded=0;whiteSpace=wrap;html=1;fillColor=#dae8fc;strokeColor=none;verticalAlign=middle;dashed=1;" parent="1" vertex="1">
          <mxGeometry x="90" y="50" width="90" height="40" as="geometry" />
        </mxCell>
        <mxCell id="8TTzhzkPqiKwERcbz_GF-11" value="" style="endArrow=classic;html=1;rounded=0;exitX=0.5;exitY=1;exitDx=0;exitDy=0;entryX=0.5;entryY=0;entryDx=0;entryDy=0;" parent="1" source="8TTzhzkPqiKwERcbz_GF-4" target="8TTzhzkPqiKwERcbz_GF-3" edge="1">
          <mxGeometry width="50" height="50" relative="1" as="geometry">
            <mxPoint x="410" as="sourcePoint" />
            <mxPoint x="460" y="-50" as="targetPoint" />
          </mxGeometry>
        </mxCell>
        <mxCell id="8TTzhzkPqiKwERcbz_GF-12" value="" style="endArrow=classic;html=1;rounded=0;exitX=0.5;exitY=1;exitDx=0;exitDy=0;entryX=0.5;entryY=0;entryDx=0;entryDy=0;" parent="1" source="8TTzhzkPqiKwERcbz_GF-3" target="gou46OdMyQ_DH9dvmqBt-82" edge="1">
          <mxGeometry width="50" height="50" relative="1" as="geometry">
            <mxPoint x="150" y="160" as="sourcePoint" />
            <mxPoint x="150" y="200" as="targetPoint" />
          </mxGeometry>
        </mxCell>
        <mxCell id="8TTzhzkPqiKwERcbz_GF-14" value="radio.json" style="rounded=0;whiteSpace=wrap;html=1;fillColor=none;labelPosition=left;verticalLabelPosition=middle;align=right;verticalAlign=middle;" parent="1" vertex="1">
          <mxGeometry x="80" y="190" width="110" height="70" as="geometry" />
        </mxCell>
        <mxCell id="8TTzhzkPqiKwERcbz_GF-16" value="phy.json" style="rounded=0;whiteSpace=wrap;html=1;fillColor=none;labelPosition=left;verticalLabelPosition=middle;align=right;verticalAlign=middle;" parent="1" vertex="1">
          <mxGeometry x="80" y="110" width="110" height="70" as="geometry" />
        </mxCell>
        <mxCell id="8TTzhzkPqiKwERcbz_GF-17" value="upper.json" style="rounded=0;whiteSpace=wrap;html=1;fillColor=none;labelPosition=left;verticalLabelPosition=middle;align=right;verticalAlign=middle;" parent="1" vertex="1">
          <mxGeometry x="80" y="40" width="110" height="60" as="geometry" />
        </mxCell>
        <mxCell id="8TTzhzkPqiKwERcbz_GF-21" value="hw_t" style="rounded=0;whiteSpace=wrap;html=1;fillColor=#dae8fc;strokeColor=none;verticalAlign=middle;dashed=1;" parent="1" vertex="1">
          <mxGeometry x="300" y="210" width="90" height="40" as="geometry" />
        </mxCell>
        <mxCell id="8TTzhzkPqiKwERcbz_GF-22" value="worker_pool_t" style="rounded=0;whiteSpace=wrap;html=1;fillColor=#dae8fc;strokeColor=none;verticalAlign=middle;dashed=1;" parent="1" vertex="1">
          <mxGeometry x="300" y="130" width="90" height="40" as="geometry" />
        </mxCell>
        <mxCell id="8TTzhzkPqiKwERcbz_GF-23" value="tpoint_t" style="rounded=0;whiteSpace=wrap;html=1;fillColor=#dae8fc;strokeColor=none;verticalAlign=middle;dashed=1;" parent="1" vertex="1">
          <mxGeometry x="300" y="50" width="90" height="40" as="geometry" />
        </mxCell>
        <mxCell id="8TTzhzkPqiKwERcbz_GF-24" value="" style="endArrow=classic;html=1;rounded=0;exitX=0.5;exitY=1;exitDx=0;exitDy=0;entryX=0.5;entryY=0;entryDx=0;entryDy=0;" parent="1" source="8TTzhzkPqiKwERcbz_GF-23" target="8TTzhzkPqiKwERcbz_GF-22" edge="1">
          <mxGeometry width="50" height="50" relative="1" as="geometry">
            <mxPoint x="620" as="sourcePoint" />
            <mxPoint x="670" y="-50" as="targetPoint" />
          </mxGeometry>
        </mxCell>
        <mxCell id="8TTzhzkPqiKwERcbz_GF-25" value="" style="endArrow=classic;html=1;rounded=0;exitX=0.5;exitY=1;exitDx=0;exitDy=0;entryX=0.5;entryY=0;entryDx=0;entryDy=0;" parent="1" source="8TTzhzkPqiKwERcbz_GF-22" target="8TTzhzkPqiKwERcbz_GF-21" edge="1">
          <mxGeometry width="50" height="50" relative="1" as="geometry">
            <mxPoint x="360" y="160" as="sourcePoint" />
            <mxPoint x="360" y="200" as="targetPoint" />
          </mxGeometry>
        </mxCell>
        <mxCell id="8TTzhzkPqiKwERcbz_GF-31" value="hw_t" style="rounded=0;whiteSpace=wrap;html=1;fillColor=#dae8fc;strokeColor=none;verticalAlign=middle;dashed=1;" parent="1" vertex="1">
          <mxGeometry x="400" y="210" width="90" height="40" as="geometry" />
        </mxCell>
        <mxCell id="8TTzhzkPqiKwERcbz_GF-32" value="worker_pool_t" style="rounded=0;whiteSpace=wrap;html=1;fillColor=#dae8fc;strokeColor=none;verticalAlign=middle;dashed=1;" parent="1" vertex="1">
          <mxGeometry x="400" y="130" width="90" height="40" as="geometry" />
        </mxCell>
        <mxCell id="8TTzhzkPqiKwERcbz_GF-33" value="tpoint_t" style="rounded=0;whiteSpace=wrap;html=1;fillColor=#dae8fc;strokeColor=none;verticalAlign=middle;dashed=1;" parent="1" vertex="1">
          <mxGeometry x="400" y="50" width="90" height="40" as="geometry" />
        </mxCell>
        <mxCell id="8TTzhzkPqiKwERcbz_GF-34" value="" style="endArrow=classic;html=1;rounded=0;exitX=0.5;exitY=1;exitDx=0;exitDy=0;entryX=0.5;entryY=0;entryDx=0;entryDy=0;" parent="1" source="8TTzhzkPqiKwERcbz_GF-33" target="8TTzhzkPqiKwERcbz_GF-32" edge="1">
          <mxGeometry width="50" height="50" relative="1" as="geometry">
            <mxPoint x="720" as="sourcePoint" />
            <mxPoint x="770" y="-50" as="targetPoint" />
          </mxGeometry>
        </mxCell>
        <mxCell id="8TTzhzkPqiKwERcbz_GF-35" value="" style="endArrow=classic;html=1;rounded=0;exitX=0.5;exitY=1;exitDx=0;exitDy=0;entryX=0.5;entryY=0;entryDx=0;entryDy=0;" parent="1" source="8TTzhzkPqiKwERcbz_GF-32" target="8TTzhzkPqiKwERcbz_GF-31" edge="1">
          <mxGeometry width="50" height="50" relative="1" as="geometry">
            <mxPoint x="460" y="160" as="sourcePoint" />
            <mxPoint x="460" y="200" as="targetPoint" />
          </mxGeometry>
        </mxCell>
        <mxCell id="8TTzhzkPqiKwERcbz_GF-36" value="upper.json" style="rounded=0;whiteSpace=wrap;html=1;fillColor=none;labelPosition=left;verticalLabelPosition=middle;align=right;verticalAlign=middle;" parent="1" vertex="1">
          <mxGeometry x="590" y="40" width="210" height="60" as="geometry" />
        </mxCell>
        <mxCell id="8TTzhzkPqiKwERcbz_GF-37" value="radio.json" style="rounded=0;whiteSpace=wrap;html=1;fillColor=none;labelPosition=left;verticalLabelPosition=middle;align=right;verticalAlign=middle;" parent="1" vertex="1">
          <mxGeometry x="590" y="190" width="210" height="70" as="geometry" />
        </mxCell>
        <mxCell id="8TTzhzkPqiKwERcbz_GF-38" value="phy.json" style="rounded=0;whiteSpace=wrap;html=1;fillColor=none;labelPosition=left;verticalLabelPosition=middle;align=right;verticalAlign=middle;" parent="1" vertex="1">
          <mxGeometry x="590" y="110" width="210" height="70" as="geometry" />
        </mxCell>
        <mxCell id="8TTzhzkPqiKwERcbz_GF-40" value="hw_t" style="rounded=0;whiteSpace=wrap;html=1;fillColor=#dae8fc;strokeColor=none;verticalAlign=middle;dashed=1;" parent="1" vertex="1">
          <mxGeometry x="600" y="210" width="90" height="40" as="geometry" />
        </mxCell>
        <mxCell id="8TTzhzkPqiKwERcbz_GF-41" value="worker_pool_t" style="rounded=0;whiteSpace=wrap;html=1;fillColor=#dae8fc;strokeColor=none;verticalAlign=middle;dashed=1;" parent="1" vertex="1">
          <mxGeometry x="600" y="130" width="90" height="40" as="geometry" />
        </mxCell>
        <mxCell id="8TTzhzkPqiKwERcbz_GF-42" value="tpoint_t" style="rounded=0;whiteSpace=wrap;html=1;fillColor=#dae8fc;strokeColor=none;verticalAlign=middle;dashed=1;" parent="1" vertex="1">
          <mxGeometry x="650" y="50" width="90" height="40" as="geometry" />
        </mxCell>
        <mxCell id="8TTzhzkPqiKwERcbz_GF-43" value="" style="endArrow=classic;html=1;rounded=0;exitX=0.5;exitY=1;exitDx=0;exitDy=0;entryX=0.5;entryY=0;entryDx=0;entryDy=0;" parent="1" source="8TTzhzkPqiKwERcbz_GF-42" target="8TTzhzkPqiKwERcbz_GF-41" edge="1">
          <mxGeometry width="50" height="50" relative="1" as="geometry">
            <mxPoint x="920" as="sourcePoint" />
            <mxPoint x="970" y="-50" as="targetPoint" />
          </mxGeometry>
        </mxCell>
        <mxCell id="8TTzhzkPqiKwERcbz_GF-44" value="" style="endArrow=classic;html=1;rounded=0;exitX=0.5;exitY=1;exitDx=0;exitDy=0;entryX=0.5;entryY=0;entryDx=0;entryDy=0;" parent="1" source="8TTzhzkPqiKwERcbz_GF-41" target="8TTzhzkPqiKwERcbz_GF-40" edge="1">
          <mxGeometry width="50" height="50" relative="1" as="geometry">
            <mxPoint x="660" y="160" as="sourcePoint" />
            <mxPoint x="660" y="200" as="targetPoint" />
          </mxGeometry>
        </mxCell>
        <mxCell id="8TTzhzkPqiKwERcbz_GF-45" value="hw_t" style="rounded=0;whiteSpace=wrap;html=1;fillColor=#dae8fc;strokeColor=none;verticalAlign=middle;dashed=1;" parent="1" vertex="1">
          <mxGeometry x="700" y="210" width="90" height="40" as="geometry" />
        </mxCell>
        <mxCell id="8TTzhzkPqiKwERcbz_GF-46" value="worker_pool_t" style="rounded=0;whiteSpace=wrap;html=1;fillColor=#dae8fc;strokeColor=none;verticalAlign=middle;dashed=1;" parent="1" vertex="1">
          <mxGeometry x="700" y="130" width="90" height="40" as="geometry" />
        </mxCell>
        <mxCell id="8TTzhzkPqiKwERcbz_GF-49" value="" style="endArrow=classic;html=1;rounded=0;exitX=0.5;exitY=1;exitDx=0;exitDy=0;entryX=0.5;entryY=0;entryDx=0;entryDy=0;" parent="1" source="8TTzhzkPqiKwERcbz_GF-46" target="8TTzhzkPqiKwERcbz_GF-45" edge="1">
          <mxGeometry width="50" height="50" relative="1" as="geometry">
            <mxPoint x="760" y="160" as="sourcePoint" />
            <mxPoint x="760" y="200" as="targetPoint" />
          </mxGeometry>
        </mxCell>
        <mxCell id="8TTzhzkPqiKwERcbz_GF-48" value="" style="endArrow=classic;html=1;rounded=0;exitX=0.5;exitY=1;exitDx=0;exitDy=0;entryX=0.5;entryY=0;entryDx=0;entryDy=0;" parent="1" source="8TTzhzkPqiKwERcbz_GF-42" target="8TTzhzkPqiKwERcbz_GF-46" edge="1">
          <mxGeometry width="50" height="50" relative="1" as="geometry">
            <mxPoint x="745" y="90" as="sourcePoint" />
            <mxPoint x="1070" y="-50" as="targetPoint" />
          </mxGeometry>
        </mxCell>
        <mxCell id="pruwS3o6wtyLJLsQGU2_-1" value="" style="endArrow=classic;html=1;rounded=0;exitX=0.25;exitY=1;exitDx=0;exitDy=0;entryX=0.75;entryY=0;entryDx=0;entryDy=0;fillColor=#f8cecc;strokeColor=#000000;" edge="1" parent="1" source="8TTzhzkPqiKwERcbz_GF-32" target="8TTzhzkPqiKwERcbz_GF-21">
          <mxGeometry width="50" height="50" relative="1" as="geometry">
            <mxPoint x="455" y="180" as="sourcePoint" />
            <mxPoint x="455" y="220" as="targetPoint" />
          </mxGeometry>
        </mxCell>
        <mxCell id="pruwS3o6wtyLJLsQGU2_-2" value="" style="endArrow=classic;html=1;rounded=0;exitX=0.75;exitY=1;exitDx=0;exitDy=0;entryX=0.25;entryY=0;entryDx=0;entryDy=0;fillColor=#f8cecc;strokeColor=#000000;" edge="1" parent="1" source="8TTzhzkPqiKwERcbz_GF-22" target="8TTzhzkPqiKwERcbz_GF-31">
          <mxGeometry width="50" height="50" relative="1" as="geometry">
            <mxPoint x="455" y="180" as="sourcePoint" />
            <mxPoint x="355" y="220" as="targetPoint" />
          </mxGeometry>
        </mxCell>
        <mxCell id="pruwS3o6wtyLJLsQGU2_-3" value="" style="endArrow=classic;html=1;rounded=0;exitX=0.25;exitY=1;exitDx=0;exitDy=0;entryX=0.75;entryY=0;entryDx=0;entryDy=0;fillColor=#f8cecc;strokeColor=#000000;" edge="1" parent="1" source="8TTzhzkPqiKwERcbz_GF-46" target="8TTzhzkPqiKwERcbz_GF-40">
          <mxGeometry width="50" height="50" relative="1" as="geometry">
            <mxPoint x="750" y="190" as="sourcePoint" />
            <mxPoint x="650" y="230" as="targetPoint" />
          </mxGeometry>
        </mxCell>
        <mxCell id="pruwS3o6wtyLJLsQGU2_-4" value="" style="endArrow=classic;html=1;rounded=0;exitX=0.75;exitY=1;exitDx=0;exitDy=0;fillColor=#f8cecc;strokeColor=#000000;entryX=0.25;entryY=0;entryDx=0;entryDy=0;" edge="1" parent="1" source="8TTzhzkPqiKwERcbz_GF-41" target="8TTzhzkPqiKwERcbz_GF-45">
          <mxGeometry width="50" height="50" relative="1" as="geometry">
            <mxPoint x="475" y="200" as="sourcePoint" />
            <mxPoint x="660" y="210" as="targetPoint" />
          </mxGeometry>
        </mxCell>
        <mxCell id="pruwS3o6wtyLJLsQGU2_-5" value="Cross&lt;div&gt;Packet&lt;/div&gt;&lt;div&gt;Generation&lt;/div&gt;" style="text;html=1;align=center;verticalAlign=middle;whiteSpace=wrap;rounded=0;fontSize=6;fillColor=default;strokeColor=#000000;glass=0;shadow=0;" vertex="1" parent="1">
          <mxGeometry x="377" y="177" width="36" height="23" as="geometry" />
        </mxCell>
        <mxCell id="pruwS3o6wtyLJLsQGU2_-13" value="Cross&lt;div&gt;Packet&lt;/div&gt;&lt;div&gt;Generation&lt;/div&gt;" style="text;html=1;align=center;verticalAlign=middle;whiteSpace=wrap;rounded=0;fontSize=6;fillColor=default;strokeColor=#000000;glass=0;shadow=0;" vertex="1" parent="1">
          <mxGeometry x="677" y="177" width="36" height="23" as="geometry" />
        </mxCell>
      </root>
    </mxGraphModel>
  </diagram>
</mxfile>
